<svg width="332" height="50" viewBox="0 0 332 50" fill="none" xmlns="http://www.w3.org/2000/svg">
<rect width="332" height="50" rx="6" fill="#04BA70"/>
<path d="M147.914 30.5H151.984C155.344 30.5 157.289 28.4219 157.289 24.8438V24.8281C157.289 21.2891 155.328 19.2266 151.984 19.2266H147.914V30.5ZM149.664 28.9922V20.7344H151.789C154.125 20.7344 155.508 22.2578 155.508 24.8516V24.8672C155.508 27.4844 154.148 28.9922 151.789 28.9922H149.664ZM162.342 30.6641C164.827 30.6641 166.35 29 166.35 26.2656V26.25C166.35 23.5156 164.819 21.8516 162.342 21.8516C159.858 21.8516 158.327 23.5234 158.327 26.25V26.2656C158.327 29 159.85 30.6641 162.342 30.6641ZM162.342 29.25C160.882 29.25 160.061 28.1484 160.061 26.2656V26.25C160.061 24.3672 160.882 23.2656 162.342 23.2656C163.796 23.2656 164.624 24.3672 164.624 26.25V26.2656C164.624 28.1406 163.796 29.25 162.342 29.25ZM167.654 30.5H169.349V25.5234C169.349 24.1562 170.122 23.3047 171.365 23.3047C172.607 23.3047 173.193 24 173.193 25.4062V30.5H174.88V25.0078C174.88 22.9844 173.833 21.8516 171.935 21.8516C170.701 21.8516 169.888 22.3984 169.474 23.3047H169.349V22.0156H167.654V30.5ZM180.09 30.6641C182.262 30.6641 183.434 29.4141 183.715 28.2969L183.731 28.2266L182.098 28.2344L182.067 28.2969C181.863 28.7344 181.215 29.2734 180.129 29.2734C178.731 29.2734 177.84 28.3281 177.809 26.7031H183.824V26.1094C183.824 23.5625 182.371 21.8516 180.004 21.8516C177.637 21.8516 176.106 23.625 176.106 26.2734V26.2812C176.106 28.9688 177.606 30.6641 180.09 30.6641ZM180.012 23.2422C181.16 23.2422 182.012 23.9766 182.145 25.4922H177.832C177.981 24.0312 178.856 23.2422 180.012 23.2422Z" fill="white"/>
</svg>
