<svg width="34" height="47" viewBox="0 0 34 47" fill="none" xmlns="http://www.w3.org/2000/svg">
<path fill-rule="evenodd" clip-rule="evenodd" d="M27.5728 27.5678C27.8005 27.3368 27.9284 27.0236 27.9284 26.6969V13.7527C27.9286 13.565 27.8864 13.3798 27.8052 13.2111C27.7239 13.0425 27.6058 12.8949 27.4597 12.7797L17.7454 5.11661C17.5323 4.94843 17.2699 4.85712 16.9999 4.85712C16.7298 4.85712 16.4674 4.94843 16.2543 5.11661L6.54 12.7797C6.39395 12.8949 6.27579 13.0425 6.19456 13.2111C6.11332 13.3798 6.07116 13.565 6.07129 13.7527V26.6969C6.07129 27.0236 6.19922 27.3368 6.42695 27.5678C6.65467 27.7988 6.96353 27.9285 7.28558 27.9285H13.3569V27.9288H20.6426V27.9285H26.7141C27.0362 27.9285 27.3451 27.7988 27.5728 27.5678ZM20.6426 27.9285V21.8573C20.6426 19.8454 19.0117 18.2145 16.9998 18.2145C14.9879 18.2145 13.3569 19.8454 13.3569 21.8573V27.9285H20.6426Z" fill="#BCBCBC"/>
<path d="M4.32637 45H5.20527V41.792H9.07246V45H9.95137V37.9541H9.07246V41.001H5.20527V37.9541H4.32637V45ZM13.6039 45.0928C15.1029 45.0928 16.0307 44.0576 16.0307 42.373V42.3633C16.0307 40.6738 15.1029 39.6436 13.6039 39.6436C12.1049 39.6436 11.1771 40.6738 11.1771 42.3633V42.373C11.1771 44.0576 12.1049 45.0928 13.6039 45.0928ZM13.6039 44.3408C12.6078 44.3408 12.0463 43.6133 12.0463 42.373V42.3633C12.0463 41.1182 12.6078 40.3955 13.6039 40.3955C14.6 40.3955 15.1615 41.1182 15.1615 42.3633V42.373C15.1615 43.6133 14.6 44.3408 13.6039 44.3408ZM17.149 45H17.9986V41.7383C17.9986 40.9961 18.5211 40.3955 19.2096 40.3955C19.8736 40.3955 20.3033 40.8008 20.3033 41.4258V45H21.1529V41.6162C21.1529 40.9473 21.6363 40.3955 22.3688 40.3955C23.1109 40.3955 23.4674 40.7812 23.4674 41.5576V45H24.317V41.3623C24.317 40.2588 23.7164 39.6436 22.6422 39.6436C21.9146 39.6436 21.3141 40.0098 21.0309 40.5664H20.9527C20.7086 40.0195 20.2105 39.6436 19.4977 39.6436C18.8092 39.6436 18.3111 39.9707 18.0768 40.5371H17.9986V39.7363H17.149V45ZM27.7986 45.0928C29.0389 45.0928 29.7908 44.3896 29.9715 43.6768L29.9813 43.6377H29.1316L29.1121 43.6816C28.9705 43.999 28.5311 44.3359 27.8182 44.3359C26.8807 44.3359 26.2801 43.7012 26.2557 42.6123H30.0447V42.2803C30.0447 40.708 29.1756 39.6436 27.7449 39.6436C26.3143 39.6436 25.3865 40.7568 25.3865 42.3828V42.3877C25.3865 44.0381 26.2947 45.0928 27.7986 45.0928ZM27.74 40.4004C28.5164 40.4004 29.0926 40.8936 29.1805 41.9336H26.2703C26.3631 40.9326 26.9588 40.4004 27.74 40.4004Z" fill="#BCBCBC"/>
</svg>
