<svg width="34" height="47" viewBox="0 0 34 47" fill="none" xmlns="http://www.w3.org/2000/svg">
<path fill-rule="evenodd" clip-rule="evenodd" d="M26.7159 26.2642L22.3218 21.8711C23.6322 20.2366 24.3449 18.2034 24.3419 16.1084C24.3419 11.0116 20.2053 6.875 15.1084 6.875C10.0116 6.875 5.875 11.0116 5.875 16.1084C5.875 21.2053 10.0116 25.3419 15.1084 25.3419C17.2034 25.3449 19.2366 24.6322 20.8711 23.3218L25.2642 27.7159L25.2913 27.6888C25.6825 27.9749 26.2345 27.9413 26.5879 27.5879C26.9413 27.2345 26.9749 26.6825 26.6888 26.2913L26.7159 26.2642ZM22.29 16.1084C22.293 17.9761 21.5658 19.7709 20.2638 21.1099L20.1099 21.2638C18.7709 22.5658 16.9761 23.293 15.1084 23.29C11.1401 23.29 7.92688 20.0757 7.92688 16.1084C7.92688 12.1401 11.1401 8.92688 15.1084 8.92688C19.0757 8.92688 22.29 12.1401 22.29 16.1084Z" fill="#1A1A1A"/>
<path d="M3.33105 45.166C4.90332 45.166 5.93359 44.3457 5.93359 43.0273V43.0225C5.93359 42.0068 5.35254 41.416 3.88281 41.0889L3.10156 40.9131C2.14453 40.7031 1.75879 40.3223 1.75879 39.7607V39.7559C1.75879 39.0186 2.4375 38.6035 3.31641 38.5986C4.23438 38.5938 4.82031 39.0527 4.91797 39.6729L4.92773 39.7363H5.80664L5.80176 39.668C5.72852 38.6182 4.74707 37.7881 3.34082 37.7881C1.88574 37.7881 0.865234 38.6133 0.860352 39.7803V39.7852C0.860352 40.8057 1.4707 41.4551 2.88184 41.7676L3.66309 41.9385C4.62988 42.1533 5.03516 42.5537 5.03516 43.1396V43.1445C5.03516 43.8623 4.33691 44.3555 3.37988 44.3555C2.36426 44.3555 1.63184 43.9111 1.56836 43.208L1.56348 43.1543H0.68457L0.689453 43.208C0.791992 44.3555 1.78809 45.166 3.33105 45.166ZM9.23945 45.0928C10.4797 45.0928 11.2316 44.3896 11.4123 43.6768L11.4221 43.6377H10.5725L10.5529 43.6816C10.4113 43.999 9.97188 44.3359 9.25898 44.3359C8.32148 44.3359 7.7209 43.7012 7.69648 42.6123H11.4855V42.2803C11.4855 40.708 10.6164 39.6436 9.18574 39.6436C7.75508 39.6436 6.82734 40.7568 6.82734 42.3828V42.3877C6.82734 44.0381 7.73555 45.0928 9.23945 45.0928ZM9.18086 40.4004C9.95723 40.4004 10.5334 40.8936 10.6213 41.9336H7.71113C7.80391 40.9326 8.39961 40.4004 9.18086 40.4004ZM14.0492 45.0928C14.7572 45.0928 15.309 44.7852 15.641 44.2236H15.7191V45H16.5688V41.3965C16.5688 40.3027 15.851 39.6436 14.5668 39.6436C13.4438 39.6436 12.643 40.2002 12.5063 41.0254L12.5014 41.0547H13.351L13.3559 41.04C13.4926 40.6299 13.9076 40.3955 14.5375 40.3955C15.3236 40.3955 15.7191 40.7471 15.7191 41.3965V41.875L14.2104 41.9678C12.9848 42.041 12.2914 42.583 12.2914 43.5205V43.5303C12.2914 44.4873 13.0482 45.0928 14.0492 45.0928ZM13.1605 43.5107V43.501C13.1605 42.9785 13.5121 42.6953 14.3129 42.6465L15.7191 42.5586V43.0371C15.7191 43.7891 15.0893 44.3555 14.225 44.3555C13.6146 44.3555 13.1605 44.043 13.1605 43.5107ZM17.9215 45H18.7711V41.7383C18.7711 40.9668 19.3473 40.4541 20.1578 40.4541C20.3434 40.4541 20.5045 40.4736 20.6803 40.5029V39.6777C20.5973 39.6631 20.4166 39.6436 20.2555 39.6436C19.5426 39.6436 19.0494 39.9658 18.8492 40.5176H18.7711V39.7363H17.9215V45ZM23.5369 45.0928C24.8016 45.0928 25.5096 44.4141 25.7244 43.4619L25.7342 43.4082L24.8943 43.4131L24.8846 43.4424C24.6893 44.0283 24.24 44.3408 23.532 44.3408C22.5945 44.3408 21.9891 43.5645 21.9891 42.3535V42.3438C21.9891 41.1572 22.5848 40.3955 23.532 40.3955C24.2889 40.3955 24.7576 40.8154 24.8895 41.333L24.8943 41.3477H25.7391L25.7342 41.3184C25.5779 40.3809 24.8113 39.6436 23.532 39.6436C22.0574 39.6436 21.1199 40.708 21.1199 42.3438V42.3535C21.1199 44.0234 22.0623 45.0928 23.5369 45.0928ZM26.8281 45H27.6777V41.8848C27.6777 40.9619 28.21 40.3955 29.0498 40.3955C29.8896 40.3955 30.2803 40.8496 30.2803 41.7969V45H31.1299V41.5918C31.1299 40.3418 30.4707 39.6436 29.2891 39.6436C28.5127 39.6436 28.0195 39.9707 27.7559 40.5273H27.6777V37.6465H26.8281V45Z" fill="#1A1A1A"/>
</svg>
